<svg width="92" height="92" viewBox="0 0 92 92" fill="none" xmlns="http://www.w3.org/2000/svg">
<path d="M46 4.77246L44.6775 6.03746L2.35752 48.3575C1.6244 49.0906 1.6244 50.2693 2.35752 51.0025C3.09065 51.7356 4.2694 51.7356 5.00252 51.0025L7.47502 48.53C7.41752 48.9037 7.36002 49.2918 7.36002 49.68C7.36002 51.8865 8.38783 53.8487 9.94752 55.2C8.38783 56.5512 7.36002 58.5134 7.36002 60.72C7.36002 62.9265 8.38783 64.8887 9.94752 66.24C8.38783 67.5912 7.36002 69.5534 7.36002 71.76C7.36002 73.9665 8.38783 75.9287 9.94752 77.28C8.38783 78.6312 7.36002 80.5934 7.36002 82.8C7.36002 85.5384 8.91252 87.9175 11.155 89.1825C11.191 89.2256 11.2269 89.2615 11.27 89.2975C11.615 89.8509 12.226 90.1743 12.88 90.16H79.12C79.8172 90.1743 80.4641 89.8006 80.7875 89.1825C83.0516 87.9247 84.64 85.56 84.64 82.8C84.64 80.5934 83.6122 78.6312 82.0525 77.28C83.6122 75.9287 84.64 73.9665 84.64 71.76C84.64 69.5534 83.6122 67.5912 82.0525 66.24C83.6122 64.8887 84.64 62.9265 84.64 60.72C84.64 58.5134 83.6122 56.5512 82.0525 55.2C83.6122 53.8487 84.64 51.8865 84.64 49.68C84.64 49.2918 84.5825 48.9037 84.525 48.53L86.9975 51.0025C87.7306 51.7356 88.9094 51.7356 89.6425 51.0025C90.3757 50.2693 90.3757 49.0906 89.6425 48.3575L47.3225 6.03746L46 4.77246ZM46 10.005L56.235 20.24H35.765L46 10.005ZM59.7425 23.8625C59.7785 23.8625 59.8216 23.8625 59.8575 23.8625L67.275 31.28H24.725L32.085 23.92H59.3975C59.5125 23.9128 59.6275 23.8912 59.7425 23.8625ZM21.045 34.96H21.1025C21.1241 34.96 21.1385 34.96 21.16 34.96H70.955L78.315 42.32H13.685L21.045 34.96ZM14.72 46C16.7756 46 18.4 47.6243 18.4 49.68C18.4 51.7356 16.7756 53.36 14.72 53.36C12.6644 53.36 11.04 51.7356 11.04 49.68C11.04 47.6243 12.6644 46 14.72 46ZM21.045 46H70.955C70.3153 47.0925 69.92 48.3287 69.92 49.68C69.92 51.0312 70.3153 52.2675 70.955 53.36H21.045C21.6847 52.2675 22.08 51.0312 22.08 49.68C22.08 48.3287 21.6847 47.0925 21.045 46ZM77.28 46C79.3356 46 80.96 47.6243 80.96 49.68C80.96 51.7356 79.3356 53.36 77.28 53.36C75.2244 53.36 73.6 51.7356 73.6 49.68C73.6 47.6243 75.2244 46 77.28 46ZM14.72 57.04C16.7756 57.04 18.4 58.6643 18.4 60.72C18.4 62.7756 16.7756 64.4 14.72 64.4C12.6644 64.4 11.04 62.7756 11.04 60.72C11.04 58.6643 12.6644 57.04 14.72 57.04ZM21.045 57.04H33.12V64.4H20.9875C21.6488 63.3147 22.08 62.0784 22.08 60.72C22.08 59.3687 21.6847 58.1325 21.045 57.04ZM36.8 57.04H55.2V65.3775C54.9556 65.8878 54.9556 66.4771 55.2 66.9875V76.4175C54.9556 76.9278 54.9556 77.5172 55.2 78.0275V86.48H36.8V77.625C36.8 77.5675 36.8 77.51 36.8 77.4525C36.8144 77.3159 36.8144 77.1865 36.8 77.05V66.585C36.8503 66.3406 36.8503 66.0818 36.8 65.8375V57.04ZM58.88 57.04H70.955C70.3153 58.1325 69.92 59.3687 69.92 60.72C69.92 62.0712 70.3153 63.3075 70.955 64.4H58.88V57.04ZM77.28 57.04C79.3356 57.04 80.96 58.6643 80.96 60.72C80.96 62.7756 79.3356 64.4 77.28 64.4C75.2244 64.4 73.6 62.7756 73.6 60.72C73.6 58.6643 75.2244 57.04 77.28 57.04ZM14.72 68.08C16.7756 68.08 18.4 69.7043 18.4 71.76C18.4 73.8156 16.7756 75.44 14.72 75.44C12.6644 75.44 11.04 73.8156 11.04 71.76C11.04 69.7043 12.6644 68.08 14.72 68.08ZM20.9875 68.08H33.12V75.44H21.045C21.6847 74.3475 22.08 73.1112 22.08 71.76C22.08 70.4015 21.6488 69.1653 20.9875 68.08ZM58.88 68.08H70.955C70.3153 69.1725 69.92 70.4087 69.92 71.76C69.92 73.1112 70.3153 74.3475 70.955 75.44H58.88V68.08ZM77.28 68.08C79.3356 68.08 80.96 69.7043 80.96 71.76C80.96 73.8156 79.3356 75.44 77.28 75.44C75.2244 75.44 73.6 73.8156 73.6 71.76C73.6 69.7043 75.2244 68.08 77.28 68.08ZM14.72 79.12C16.7756 79.12 18.4 80.7443 18.4 82.8C18.4 84.8556 16.7756 86.48 14.72 86.48C12.6644 86.48 11.04 84.8556 11.04 82.8C11.04 80.7443 12.6644 79.12 14.72 79.12ZM21.045 79.12H33.12V86.48H21.045C21.6847 85.3875 22.08 84.1512 22.08 82.8C22.08 81.4487 21.6847 80.2125 21.045 79.12ZM58.88 79.12H70.955C70.3153 80.2125 69.92 81.4487 69.92 82.8C69.92 84.1512 70.3153 85.3875 70.955 86.48H58.88V79.12ZM77.28 79.12C79.3356 79.12 80.96 80.7443 80.96 82.8C80.96 84.8556 79.3356 86.48 77.28 86.48C75.2244 86.48 73.6 84.8556 73.6 82.8C73.6 80.7443 75.2244 79.12 77.28 79.12Z" fill="#C4A886"/>
</svg>
