<svg width="92" height="92" viewBox="0 0 92 92" fill="none" xmlns="http://www.w3.org/2000/svg">
<path d="M45.9712 12.8513C45.8562 12.8585 45.7484 12.8657 45.6334 12.8944C37.914 12.9591 30.6834 15.0938 24.4662 18.7738C24.3153 18.8385 24.1715 18.9248 24.035 19.0254C17.7172 22.8707 12.4919 28.3404 8.91248 34.8379C8.81904 34.9673 8.73998 35.1038 8.68248 35.2548C5.54873 41.0982 3.75185 47.761 3.69435 54.8263C3.64404 55.0707 3.64404 55.3151 3.69435 55.5523C3.75185 63.3291 5.69247 70.1573 9.46591 76.4176C9.90435 77.1435 10.7884 77.4741 11.6006 77.2154C12.4128 76.9566 12.9447 76.1732 12.88 75.3251L12.9662 76.4535L19.8734 72.4501C20.4628 72.1338 20.8294 71.5229 20.8294 70.8544C20.8365 70.186 20.4772 69.5679 19.895 69.2373C19.3128 68.9066 18.6012 68.921 18.0262 69.266L11.8881 72.8238C9.27185 67.9794 7.6906 62.8979 7.41748 57.0401H14.72C15.3812 57.0473 15.9994 56.7023 16.3372 56.1273C16.6678 55.5523 16.6678 54.8479 16.3372 54.2729C15.9994 53.6979 15.3812 53.3529 14.72 53.3601H7.41748C7.66904 48.0269 9.02029 42.9957 11.2125 38.446C12.2475 39.0066 13.9006 39.8979 17.6165 41.9176C18.1987 42.2482 18.9103 42.241 19.4853 41.896C20.0531 41.551 20.3981 40.9185 20.3694 40.2573C20.3478 39.5888 19.9669 38.9851 19.3703 38.676C15.6544 36.6635 14.0084 35.7723 12.9662 35.2116C15.9131 30.3601 19.8519 26.1913 24.5597 23.0504L28.3475 29.3538C28.6781 29.9216 29.2962 30.2738 29.9575 30.2666C30.6259 30.2523 31.2297 29.8929 31.5531 29.3107C31.8694 28.7285 31.8478 28.0169 31.5028 27.4563L27.715 21.1529C32.6528 18.5007 38.2303 16.8979 44.16 16.6176V23.9201C44.1528 24.5813 44.4978 25.1994 45.0728 25.5373C45.6478 25.8679 46.3522 25.8679 46.9272 25.5373C47.5022 25.1994 47.8472 24.5813 47.84 23.9201V16.6176C53.1731 16.8691 58.2187 18.1916 62.7684 20.3838L59.2825 26.8166C58.9519 27.3988 58.959 28.1104 59.304 28.6854C59.649 29.2532 60.2815 29.5982 60.9428 29.5694C61.6112 29.5479 62.215 29.1669 62.524 28.5704L66.0028 22.1448C70.8544 25.0844 75.0087 29.0519 78.1497 33.7598L71.8462 37.5476C71.2784 37.8782 70.9262 38.4963 70.9334 39.1576C70.9478 39.826 71.3072 40.4298 71.8894 40.7532C72.4715 41.0694 73.1831 41.0479 73.7437 40.7029L80.0472 36.9151C82.6994 41.8529 84.3022 47.4304 84.5825 53.3601H77.28C76.6187 53.3529 76.0006 53.6979 75.6628 54.2729C75.3322 54.8479 75.3322 55.5523 75.6628 56.1273C76.0006 56.7023 76.6187 57.0473 77.28 57.0401H84.5825C84.3094 62.8979 82.7281 67.9794 80.119 72.8238L73.9737 69.266C73.3987 68.921 72.6872 68.9066 72.105 69.2373C71.5228 69.5679 71.1634 70.186 71.1706 70.8544C71.1706 71.5229 71.5372 72.1338 72.1265 72.4501L79.0337 76.4535L79.12 75.3251C79.0553 76.1732 79.5872 76.9566 80.3994 77.2154C81.2115 77.4741 82.0956 77.1435 82.534 76.4176C86.3075 70.1644 88.2481 63.3363 88.3128 55.5738C88.3559 55.3294 88.3559 55.0779 88.3128 54.8407C88.2409 47.1069 86.099 39.8619 82.4047 33.6448C82.3544 33.5082 82.2825 33.386 82.1962 33.2638C82.189 33.2638 82.189 33.2638 82.189 33.2638C82.189 33.2566 82.1819 33.2566 82.1747 33.2494C78.3365 26.9388 72.8812 21.7207 66.3981 18.1413C66.24 18.0191 66.0675 17.9329 65.8878 17.8682C60.0515 14.7488 53.4103 12.9519 46.3522 12.8944C46.23 12.8657 46.1006 12.8513 45.9712 12.8513ZM67.2678 40.8107C66.9156 40.8035 66.5706 40.8969 66.2687 41.0838L49.5075 50.9882C48.5515 50.1832 47.3369 49.6801 46 49.6801C42.974 49.6801 40.48 52.1741 40.48 55.2001C40.48 58.226 42.974 60.7201 46 60.7201C49.0259 60.7201 51.52 58.226 51.52 55.2001C51.52 54.8407 51.4769 54.4813 51.4122 54.1363L68.1375 44.2463C68.8562 43.8366 69.2084 42.9957 69.0072 42.1979C68.8059 41.4001 68.0944 40.8323 67.2678 40.8107ZM46 53.3601C46.5822 53.3601 47.0709 53.626 47.4015 54.0285C47.4734 54.2226 47.5812 54.3951 47.7178 54.5532C47.7897 54.7544 47.84 54.9701 47.84 55.2001C47.84 56.2351 47.035 57.0401 46 57.0401C44.965 57.0401 44.16 56.2351 44.16 55.2001C44.16 54.1651 44.965 53.3601 46 53.3601ZM34.96 69.9201C34.2987 69.9129 33.6806 70.2579 33.3428 70.8329C33.0122 71.4079 33.0122 72.1123 33.3428 72.6873C33.6806 73.2623 34.2987 73.6073 34.96 73.6001H57.04C57.7012 73.6073 58.3194 73.2623 58.6572 72.6873C58.9878 72.1123 58.9878 71.4079 58.6572 70.8329C58.3194 70.2579 57.7012 69.9129 57.04 69.9201H34.96Z" fill="#C4A886"/>
</svg>
