<svg width="92" height="92" viewBox="0 0 92 92" fill="none" xmlns="http://www.w3.org/2000/svg">
<path d="M47.84 3.67993C24.4734 3.67993 15.4531 18.7665 14.72 33.1199V45.4249C13.4334 46.8984 12.88 48.7815 12.88 51.1749C12.88 55.4084 15.6184 58.8799 19.665 59.7999C24.4519 72.3134 32.3869 88.3199 46 88.3199C53.36 88.3199 59.0669 83.5331 63.48 77.2799H58.7075C54.6609 82.2465 50.4275 84.6399 45.8275 84.6399C36.9941 84.6399 29.4184 75.7849 22.425 57.3849L22.08 56.2924L20.9875 56.1199C18.5941 56.1199 16.56 53.9349 16.56 51.1749C16.56 50.0968 16.7613 49.1912 17.0775 48.4724L23.115 51.3474C23.69 51.6277 24.3656 51.5918 24.9047 51.2468C25.4366 50.909 25.7672 50.3196 25.76 49.6799V36.5124C27.0322 36.4262 30.3816 36.2968 35.9375 34.9599C41.7809 33.5584 48.5228 31.0499 53.1875 26.5649C58.1253 33.0696 64.5078 35.5924 66.24 36.1674V49.6799C66.2328 50.3196 66.5634 50.909 67.0953 51.2468C67.6344 51.5918 68.31 51.6277 68.885 51.3474L71.76 49.9099V56.0049C71.4653 56.0696 71.1491 56.1199 70.84 56.1199L69.7475 56.2924L69.345 57.3849C67.505 62.1718 65.665 66.2543 63.825 69.7474C66.0316 69.3809 68.1016 68.4681 69.575 66.8149C70.6819 64.4215 71.5875 62.0065 72.5075 59.7999C72.8741 59.7065 73.2334 59.5556 73.6 59.3974V60.7199C73.6 66.9227 68.7628 71.7599 62.56 71.7599H54.855C54.0859 69.6324 52.0591 68.0799 49.68 68.0799H46C42.9741 68.0799 40.48 70.574 40.48 73.5999C40.48 76.6259 42.9741 79.1199 46 79.1199H49.68C52.0591 79.1199 54.0859 77.5674 54.855 75.4399H62.56C70.7106 75.4399 77.28 68.8706 77.28 60.7199V58.8799C80.3059 58.8799 82.8 56.3859 82.8 53.3599V45.9999C82.8 42.974 80.3059 40.4799 77.28 40.4799V33.1199C76.5469 16.9265 67.5409 7.72649 52.2675 7.35993L48.5875 3.67993H47.84ZM47.0925 7.35993L50.7725 11.0399H51.52C69.92 11.0399 73.2334 24.8399 73.6 33.1199V40.4799C73.5425 40.4799 73.485 40.4799 73.4275 40.4799C72.4788 40.5662 71.7528 41.364 71.76 42.3199V45.7699L69.92 46.6899V34.9599C69.9272 34.1334 69.3881 33.4074 68.5975 33.1774C68.5975 33.1774 59.4263 30.2952 54.9125 22.9424C54.5459 22.3531 53.8775 22.0224 53.1875 22.0799C52.6916 22.1302 52.2316 22.3746 51.9225 22.7699C48.2569 27.1687 41.2778 29.9215 35.1325 31.3949C28.9872 32.8684 23.805 33.1199 23.805 33.1199C22.8347 33.1774 22.08 33.9896 22.08 34.9599V46.7474L18.2275 44.9074V33.1199C19.3344 14.5331 33.6591 7.54681 47.0925 7.35993ZM75.44 44.1599H77.28C78.3006 44.1599 79.12 44.9793 79.12 45.9999V53.3599C79.12 54.3806 78.3006 55.1999 77.28 55.1999H75.785C75.67 55.1712 75.555 55.1496 75.44 55.1424V47.1499C75.4688 46.9559 75.4688 46.769 75.44 46.5749V44.1599ZM46 71.7599H49.68C50.7006 71.7599 51.52 72.5793 51.52 73.5999C51.52 74.6206 50.7006 75.4399 49.68 75.4399H46C44.9794 75.4399 44.16 74.6206 44.16 73.5999C44.16 72.5793 44.9794 71.7599 46 71.7599Z" fill="#C4A886"/>
</svg>
