<svg width="21" height="21" viewBox="0 0 21 21" fill="none" xmlns="http://www.w3.org/2000/svg">
<path d="M15.12 0V5.04H10.08V10.08H5.04V15.12H0V21H0.84V15.96H5.88V10.92H10.92V5.88H15.96V0.84H21V0H15.12ZM16.6294 9.66C16.398 9.68461 16.2307 9.89461 16.2553 10.1259C16.2799 10.3573 16.4899 10.5246 16.7213 10.5H19.1494L9.77812 19.8581C9.61078 20.0255 9.61078 20.2945 9.77812 20.4619C9.94547 20.6292 10.2145 20.6292 10.3819 20.4619L19.74 11.0906V13.5188C19.7384 13.6697 19.8171 13.8108 19.9484 13.8879C20.0796 13.9634 20.2404 13.9634 20.3716 13.8879C20.5029 13.8108 20.5816 13.6697 20.58 13.5188V9.66H16.7213C16.7032 9.65836 16.6868 9.65836 16.6687 9.66C16.6556 9.66 16.6425 9.66 16.6294 9.66Z" fill="#C4A886"/>
</svg>
