<svg width="210" height="35" viewBox="0 0 210 35" fill="none" xmlns="http://www.w3.org/2000/svg">
<path d="M40.642 19L36.33 3.6H39.52L42.468 15.018L45.68 3.6H48.276L51.51 15.018L54.458 3.6H57.648L53.336 19H49.882L46.978 8.836L44.096 19H40.642ZM67.558 17.636C66.4286 18.7507 65.05 19.308 63.422 19.308C61.794 19.308 60.4153 18.7507 59.286 17.636C58.1713 16.5067 57.614 15.128 57.614 13.5C57.614 11.872 58.1713 10.5007 59.286 9.386C60.4153 8.25667 61.794 7.692 63.422 7.692C65.05 7.692 66.4286 8.25667 67.558 9.386C68.6873 10.5007 69.252 11.872 69.252 13.5C69.252 15.128 68.6873 16.5067 67.558 17.636ZM61.288 15.678C61.86 16.25 62.5713 16.536 63.422 16.536C64.2726 16.536 64.984 16.25 65.556 15.678C66.128 15.106 66.414 14.38 66.414 13.5C66.414 12.62 66.128 11.894 65.556 11.322C64.984 10.75 64.2726 10.464 63.422 10.464C62.5713 10.464 61.86 10.75 61.288 11.322C60.7306 11.894 60.452 12.62 60.452 13.5C60.452 14.38 60.7306 15.106 61.288 15.678ZM80.8405 17.636C79.7111 18.7507 78.3325 19.308 76.7045 19.308C75.0765 19.308 73.6978 18.7507 72.5685 17.636C71.4538 16.5067 70.8965 15.128 70.8965 13.5C70.8965 11.872 71.4538 10.5007 72.5685 9.386C73.6978 8.25667 75.0765 7.692 76.7045 7.692C78.3325 7.692 79.7111 8.25667 80.8405 9.386C81.9698 10.5007 82.5345 11.872 82.5345 13.5C82.5345 15.128 81.9698 16.5067 80.8405 17.636ZM74.5705 15.678C75.1425 16.25 75.8538 16.536 76.7045 16.536C77.5551 16.536 78.2665 16.25 78.8385 15.678C79.4105 15.106 79.6965 14.38 79.6965 13.5C79.6965 12.62 79.4105 11.894 78.8385 11.322C78.2665 10.75 77.5551 10.464 76.7045 10.464C75.8538 10.464 75.1425 10.75 74.5705 11.322C74.0131 11.894 73.7345 12.62 73.7345 13.5C73.7345 14.38 74.0131 15.106 74.5705 15.678ZM93.089 3.6H95.927V19H93.089V17.702C92.253 18.7727 91.065 19.308 89.525 19.308C88.0436 19.308 86.775 18.7507 85.719 17.636C84.6776 16.5067 84.157 15.128 84.157 13.5C84.157 11.872 84.6776 10.5007 85.719 9.386C86.775 8.25667 88.0436 7.692 89.525 7.692C91.065 7.692 92.253 8.22733 93.089 9.298V3.6ZM87.853 15.744C88.4396 16.316 89.173 16.602 90.053 16.602C90.933 16.602 91.659 16.316 92.231 15.744C92.803 15.1573 93.089 14.4093 93.089 13.5C93.089 12.5907 92.803 11.85 92.231 11.278C91.659 10.6913 90.933 10.398 90.053 10.398C89.173 10.398 88.4396 10.6913 87.853 11.278C87.281 11.85 86.995 12.5907 86.995 13.5C86.995 14.4093 87.281 15.1573 87.853 15.744ZM107.63 16.096H113.504V19H104.594V3.6H107.63V16.096ZM116.725 6.68C116.256 6.68 115.845 6.51133 115.493 6.174C115.156 5.822 114.987 5.41133 114.987 4.942C114.987 4.47267 115.156 4.062 115.493 3.71C115.845 3.358 116.256 3.182 116.725 3.182C117.209 3.182 117.62 3.358 117.957 3.71C118.309 4.062 118.485 4.47267 118.485 4.942C118.485 5.41133 118.309 5.822 117.957 6.174C117.62 6.51133 117.209 6.68 116.725 6.68ZM115.317 19V8H118.155V19H115.317ZM126.891 6.02C125.336 5.90267 124.559 6.526 124.559 7.89V8H126.891V10.728H124.559V19H121.721V10.728H120.137V8H121.721V7.89C121.721 6.33533 122.153 5.15467 123.019 4.348C123.884 3.54133 125.175 3.18933 126.891 3.292V6.02ZM130.401 14.666C130.783 16.0447 131.817 16.734 133.503 16.734C134.589 16.734 135.41 16.3673 135.967 15.634L138.255 16.954C137.17 18.5233 135.571 19.308 133.459 19.308C131.641 19.308 130.181 18.758 129.081 17.658C127.981 16.558 127.431 15.172 127.431 13.5C127.431 11.8427 127.974 10.464 129.059 9.364C130.145 8.24933 131.538 7.692 133.239 7.692C134.853 7.692 136.18 8.24933 137.221 9.364C138.277 10.4787 138.805 11.8573 138.805 13.5C138.805 13.8667 138.769 14.2553 138.695 14.666H130.401ZM130.357 12.466H135.967C135.806 11.718 135.469 11.1607 134.955 10.794C134.457 10.4273 133.885 10.244 133.239 10.244C132.477 10.244 131.846 10.442 131.347 10.838C130.849 11.2193 130.519 11.762 130.357 12.466ZM155.615 3.6H158.629V19H155.615V12.62H149.895V19H146.859V3.6H149.895V9.716H155.615V3.6ZM170.949 17.636C169.82 18.7507 168.441 19.308 166.813 19.308C165.185 19.308 163.807 18.7507 162.677 17.636C161.563 16.5067 161.005 15.128 161.005 13.5C161.005 11.872 161.563 10.5007 162.677 9.386C163.807 8.25667 165.185 7.692 166.813 7.692C168.441 7.692 169.82 8.25667 170.949 9.386C172.079 10.5007 172.643 11.872 172.643 13.5C172.643 15.128 172.079 16.5067 170.949 17.636ZM164.679 15.678C165.251 16.25 165.963 16.536 166.813 16.536C167.664 16.536 168.375 16.25 168.947 15.678C169.519 15.106 169.805 14.38 169.805 13.5C169.805 12.62 169.519 11.894 168.947 11.322C168.375 10.75 167.664 10.464 166.813 10.464C165.963 10.464 165.251 10.75 164.679 11.322C164.122 11.894 163.843 12.62 163.843 13.5C163.843 14.38 164.122 15.106 164.679 15.678ZM182.12 8H184.958V19H182.12V17.768C181.431 18.7947 180.338 19.308 178.842 19.308C177.639 19.308 176.642 18.9047 175.85 18.098C175.073 17.2913 174.684 16.1767 174.684 14.754V8H177.522V14.402C177.522 15.1353 177.72 15.7 178.116 16.096C178.512 16.4773 179.04 16.668 179.7 16.668C180.433 16.668 181.02 16.4407 181.46 15.986C181.9 15.5313 182.12 14.8493 182.12 13.94V8ZM190.309 11.124C190.309 11.4173 190.5 11.6593 190.881 11.85C191.277 12.026 191.754 12.1873 192.311 12.334C192.869 12.466 193.426 12.642 193.983 12.862C194.541 13.0673 195.01 13.4193 195.391 13.918C195.787 14.4167 195.985 15.04 195.985 15.788C195.985 16.9173 195.56 17.79 194.709 18.406C193.873 19.0073 192.825 19.308 191.563 19.308C189.305 19.308 187.765 18.4353 186.943 16.69L189.407 15.304C189.73 16.2573 190.449 16.734 191.563 16.734C192.575 16.734 193.081 16.4187 193.081 15.788C193.081 15.4947 192.883 15.26 192.487 15.084C192.106 14.8933 191.637 14.7247 191.079 14.578C190.522 14.4313 189.965 14.248 189.407 14.028C188.85 13.808 188.373 13.4633 187.977 12.994C187.596 12.51 187.405 11.9087 187.405 11.19C187.405 10.1047 187.801 9.254 188.593 8.638C189.4 8.00733 190.397 7.692 191.585 7.692C192.48 7.692 193.294 7.89733 194.027 8.308C194.761 8.704 195.34 9.276 195.765 10.024L193.345 11.344C192.993 10.596 192.407 10.222 191.585 10.222C191.219 10.222 190.911 10.3027 190.661 10.464C190.427 10.6253 190.309 10.8453 190.309 11.124ZM200.278 14.666C200.659 16.0447 201.693 16.734 203.38 16.734C204.465 16.734 205.287 16.3673 205.844 15.634L208.132 16.954C207.047 18.5233 205.448 19.308 203.336 19.308C201.517 19.308 200.058 18.758 198.958 17.658C197.858 16.558 197.308 15.172 197.308 13.5C197.308 11.8427 197.851 10.464 198.936 9.364C200.021 8.24933 201.415 7.692 203.116 7.692C204.729 7.692 206.057 8.24933 207.098 9.364C208.154 10.4787 208.682 11.8573 208.682 13.5C208.682 13.8667 208.645 14.2553 208.572 14.666H200.278ZM200.234 12.466H205.844C205.683 11.718 205.345 11.1607 204.832 10.794C204.333 10.4273 203.761 10.244 203.116 10.244C202.353 10.244 201.723 10.442 201.224 10.838C200.725 11.2193 200.395 11.762 200.234 12.466Z" fill="#3E3F43"/>
<path opacity="0.7" d="M46.12 22.2V32H45.14V23.124H40.1V32H39.12V22.2H46.12ZM51.5542 24.832C52.5529 24.832 53.4022 25.1867 54.1022 25.896C54.8115 26.6053 55.1662 27.4733 55.1662 28.5C55.1662 29.5267 54.8115 30.3947 54.1022 31.104C53.4022 31.8133 52.5529 32.168 51.5542 32.168C50.3129 32.168 49.3702 31.6547 48.7262 30.628V34.8H47.8022V25H48.7262V26.372C49.3702 25.3453 50.3129 24.832 51.5542 24.832ZM49.5242 30.474C50.0562 31.006 50.7095 31.272 51.4842 31.272C52.2589 31.272 52.9122 31.006 53.4442 30.474C53.9762 29.9327 54.2422 29.2747 54.2422 28.5C54.2422 27.7253 53.9762 27.072 53.4442 26.54C52.9122 25.9987 52.2589 25.728 51.4842 25.728C50.7095 25.728 50.0562 25.9987 49.5242 26.54C48.9922 27.072 48.7262 27.7253 48.7262 28.5C48.7262 29.2747 48.9922 29.9327 49.5242 30.474ZM62.1486 31.118C61.4392 31.818 60.5712 32.168 59.5446 32.168C58.5179 32.168 57.6452 31.818 56.9266 31.118C56.2172 30.4087 55.8626 29.536 55.8626 28.5C55.8626 27.464 56.2172 26.596 56.9266 25.896C57.6452 25.1867 58.5179 24.832 59.5446 24.832C60.5712 24.832 61.4392 25.1867 62.1486 25.896C62.8672 26.596 63.2266 27.464 63.2266 28.5C63.2266 29.536 62.8672 30.4087 62.1486 31.118ZM57.5846 30.474C58.1166 31.006 58.7699 31.272 59.5446 31.272C60.3192 31.272 60.9726 31.006 61.5046 30.474C62.0366 29.9327 62.3026 29.2747 62.3026 28.5C62.3026 27.7253 62.0366 27.072 61.5046 26.54C60.9726 25.9987 60.3192 25.728 59.5446 25.728C58.7699 25.728 58.1166 25.9987 57.5846 26.54C57.0526 27.072 56.7866 27.7253 56.7866 28.5C56.7866 29.2747 57.0526 29.9327 57.5846 30.474ZM69.9594 31.104H70.9394V33.876H70.0154V32H64.3034V33.876H63.3794V31.104H64.2334C64.7094 30.4787 64.9474 29.5967 64.9474 28.458V25H69.9594V31.104ZM65.3534 31.104H69.0354V25.896H65.8714V28.458C65.8714 29.5313 65.6987 30.4133 65.3534 31.104ZM77.6637 25H78.5878V32H77.6637V30.628C77.0197 31.6547 76.0771 32.168 74.8357 32.168C73.8371 32.168 72.9831 31.8133 72.2737 31.104C71.5737 30.3947 71.2237 29.5267 71.2237 28.5C71.2237 27.4733 71.5737 26.6053 72.2737 25.896C72.9831 25.1867 73.8371 24.832 74.8357 24.832C76.0771 24.832 77.0197 25.3453 77.6637 26.372V25ZM72.9457 30.474C73.4777 31.006 74.1311 31.272 74.9057 31.272C75.6804 31.272 76.3337 31.006 76.8657 30.474C77.3977 29.9327 77.6637 29.2747 77.6637 28.5C77.6637 27.7253 77.3977 27.072 76.8657 26.54C76.3337 25.9987 75.6804 25.728 74.9057 25.728C74.1311 25.728 73.4777 25.9987 72.9457 26.54C72.4137 27.072 72.1477 27.7253 72.1477 28.5C72.1477 29.2747 72.4137 29.9327 72.9457 30.474ZM88.3001 32H87.1801L84.3241 28.626V32H83.4001V28.626L80.5441 32H79.4241L82.5601 28.36L79.5641 25H80.6841L83.4001 28.108V25H84.3241V28.108L87.0401 25H88.1601L85.1641 28.36L88.3001 32ZM94.5972 25H95.5212V32H94.5972V30.628C93.9532 31.6547 93.0105 32.168 91.7692 32.168C90.7705 32.168 89.9165 31.8133 89.2072 31.104C88.5072 30.3947 88.1572 29.5267 88.1572 28.5C88.1572 27.4733 88.5072 26.6053 89.2072 25.896C89.9165 25.1867 90.7705 24.832 91.7692 24.832C93.0105 24.832 93.9532 25.3453 94.5972 26.372V25ZM89.8792 30.474C90.4112 31.006 91.0645 31.272 91.8392 31.272C92.6139 31.272 93.2672 31.006 93.7992 30.474C94.3312 29.9327 94.5972 29.2747 94.5972 28.5C94.5972 27.7253 94.3312 27.072 93.7992 26.54C93.2672 25.9987 92.6139 25.728 91.8392 25.728C91.0645 25.728 90.4112 25.9987 89.8792 26.54C89.3472 27.072 89.0812 27.7253 89.0812 28.5C89.0812 29.2747 89.3472 29.9327 89.8792 30.474ZM106.018 31.104H106.998V33.876H106.074V32H100.362V33.876H99.4376V31.104H100.292C100.768 30.4787 101.006 29.5967 101.006 28.458V25H106.018V31.104ZM101.412 31.104H105.094V25.896H101.93V28.458C101.93 29.5313 101.757 30.4133 101.412 31.104ZM110.936 24.832C111.972 24.832 112.807 25.2007 113.442 25.938C114.086 26.666 114.408 27.5293 114.408 28.528C114.408 28.6307 114.399 28.7753 114.38 28.962H108.234C108.327 29.6713 108.626 30.236 109.13 30.656C109.643 31.0667 110.273 31.272 111.02 31.272C111.552 31.272 112.009 31.1647 112.392 30.95C112.784 30.726 113.078 30.4367 113.274 30.082L114.086 30.558C113.778 31.0527 113.358 31.4447 112.826 31.734C112.294 32.0233 111.687 32.168 111.006 32.168C109.905 32.168 109.009 31.8227 108.318 31.132C107.627 30.4413 107.282 29.564 107.282 28.5C107.282 27.4547 107.623 26.582 108.304 25.882C108.985 25.182 109.863 24.832 110.936 24.832ZM110.936 25.728C110.208 25.728 109.597 25.9473 109.102 26.386C108.617 26.8153 108.327 27.3753 108.234 28.066H113.456C113.363 27.3287 113.078 26.7547 112.602 26.344C112.126 25.9333 111.571 25.728 110.936 25.728ZM119.21 24.832C120.208 24.832 121.058 25.1867 121.758 25.896C122.467 26.6053 122.822 27.4733 122.822 28.5C122.822 29.5267 122.467 30.3947 121.758 31.104C121.058 31.8133 120.208 32.168 119.21 32.168C117.968 32.168 117.026 31.6547 116.382 30.628V34.8H115.458V25H116.382V26.372C117.026 25.3453 117.968 24.832 119.21 24.832ZM117.18 30.474C117.712 31.006 118.365 31.272 119.14 31.272C119.914 31.272 120.568 31.006 121.1 30.474C121.632 29.9327 121.898 29.2747 121.898 28.5C121.898 27.7253 121.632 27.072 121.1 26.54C120.568 25.9987 119.914 25.728 119.14 25.728C118.365 25.728 117.712 25.9987 117.18 26.54C116.648 27.072 116.382 27.7253 116.382 28.5C116.382 29.2747 116.648 29.9327 117.18 30.474ZM127.172 24.832C128.208 24.832 129.043 25.2007 129.678 25.938C130.322 26.666 130.644 27.5293 130.644 28.528C130.644 28.6307 130.635 28.7753 130.616 28.962H124.47C124.563 29.6713 124.862 30.236 125.366 30.656C125.879 31.0667 126.509 31.272 127.256 31.272C127.788 31.272 128.245 31.1647 128.628 30.95C129.02 30.726 129.314 30.4367 129.51 30.082L130.322 30.558C130.014 31.0527 129.594 31.4447 129.062 31.734C128.53 32.0233 127.923 32.168 127.242 32.168C126.141 32.168 125.245 31.8227 124.554 31.132C123.863 30.4413 123.518 29.564 123.518 28.5C123.518 27.4547 123.859 26.582 124.54 25.882C125.221 25.182 126.099 24.832 127.172 24.832ZM127.172 25.728C126.444 25.728 125.833 25.9473 125.338 26.386C124.853 26.8153 124.563 27.3753 124.47 28.066H129.692C129.599 27.3287 129.314 26.7547 128.838 26.344C128.362 25.9333 127.807 25.728 127.172 25.728ZM136.146 28.402C136.911 28.682 137.294 29.228 137.294 30.04C137.294 30.6093 137.103 31.0807 136.72 31.454C136.347 31.818 135.805 32 135.096 32H131.694V25H134.816C135.497 25 136.025 25.1773 136.398 25.532C136.771 25.8773 136.958 26.3253 136.958 26.876C136.958 27.576 136.687 28.0847 136.146 28.402ZM134.816 25.896H132.618V28.024H134.816C135.628 28.024 136.034 27.66 136.034 26.932C136.034 26.6053 135.927 26.3533 135.712 26.176C135.507 25.9893 135.208 25.896 134.816 25.896ZM135.096 31.104C135.507 31.104 135.819 31.006 136.034 30.81C136.258 30.614 136.37 30.3387 136.37 29.984C136.37 29.6573 136.258 29.4007 136.034 29.214C135.819 29.018 135.507 28.92 135.096 28.92H132.618V31.104H135.096ZM143.04 25V32H142.116V29.312H140.912L138.756 32H137.58L139.792 29.284C139.232 29.2 138.77 28.9667 138.406 28.584C138.042 28.2013 137.86 27.73 137.86 27.17C137.86 26.5353 138.084 26.0173 138.532 25.616C138.99 25.2053 139.545 25 140.198 25H143.04ZM140.198 28.444H142.116V25.896H140.198C139.806 25.896 139.47 26.0127 139.19 26.246C138.92 26.4793 138.784 26.7873 138.784 27.17C138.784 27.5527 138.92 27.8607 139.19 28.094C139.47 28.3273 139.806 28.444 140.198 28.444ZM149.536 25H150.46V32H149.536V28.948H145.504V32H144.58V25H145.504V28.052H149.536V25ZM154.836 27.66C155.49 27.66 156.04 27.8653 156.488 28.276C156.946 28.6773 157.174 29.1953 157.174 29.83C157.174 30.4647 156.946 30.9873 156.488 31.398C156.04 31.7993 155.49 32 154.836 32H151.994V25H152.918V27.66H154.836ZM158.154 25H159.078V32H158.154V25ZM154.836 31.104C155.228 31.104 155.56 30.9873 155.83 30.754C156.11 30.5207 156.25 30.2127 156.25 29.83C156.25 29.4473 156.11 29.1393 155.83 28.906C155.56 28.6727 155.228 28.556 154.836 28.556H152.918V31.104H154.836ZM166.505 32H165.399L163.215 29.116L161.031 32H159.925L162.669 28.374L160.107 25H161.213L163.215 27.646L165.217 25H166.323L163.775 28.374L166.505 32ZM176.302 31.104H177.282V33.876H176.358V32H170.646V33.876H169.722V31.104H170.576C171.052 30.4787 171.29 29.5967 171.29 28.458V25H176.302V31.104ZM171.696 31.104H175.378V25.896H172.214V28.458C172.214 29.5313 172.041 30.4133 171.696 31.104ZM183.852 31.118C183.143 31.818 182.275 32.168 181.248 32.168C180.222 32.168 179.349 31.818 178.63 31.118C177.921 30.4087 177.566 29.536 177.566 28.5C177.566 27.464 177.921 26.596 178.63 25.896C179.349 25.1867 180.222 24.832 181.248 24.832C182.275 24.832 183.143 25.1867 183.852 25.896C184.571 26.596 184.93 27.464 184.93 28.5C184.93 29.536 184.571 30.4087 183.852 31.118ZM179.288 30.474C179.82 31.006 180.474 31.272 181.248 31.272C182.023 31.272 182.676 31.006 183.208 30.474C183.74 29.9327 184.006 29.2747 184.006 28.5C184.006 27.7253 183.74 27.072 183.208 26.54C182.676 25.9987 182.023 25.728 181.248 25.728C180.474 25.728 179.82 25.9987 179.288 26.54C178.756 27.072 178.49 27.7253 178.49 28.5C178.49 29.2747 178.756 29.9327 179.288 30.474ZM192.917 25V32H191.993V26.414L189.543 30.39H189.431L186.981 26.414V32H186.057V25H187.121L189.487 28.836L191.853 25H192.917ZM200.321 31.118C199.612 31.818 198.744 32.168 197.717 32.168C196.69 32.168 195.818 31.818 195.099 31.118C194.39 30.4087 194.035 29.536 194.035 28.5C194.035 27.464 194.39 26.596 195.099 25.896C195.818 25.1867 196.69 24.832 197.717 24.832C198.744 24.832 199.612 25.1867 200.321 25.896C201.04 26.596 201.399 27.464 201.399 28.5C201.399 29.536 201.04 30.4087 200.321 31.118ZM195.757 30.474C196.289 31.006 196.942 31.272 197.717 31.272C198.492 31.272 199.145 31.006 199.677 30.474C200.209 29.9327 200.475 29.2747 200.475 28.5C200.475 27.7253 200.209 27.072 199.677 26.54C199.145 25.9987 198.492 25.728 197.717 25.728C196.942 25.728 196.289 25.9987 195.757 26.54C195.225 27.072 194.959 27.7253 194.959 28.5C194.959 29.2747 195.225 29.9327 195.757 30.474ZM206.977 28.402C207.742 28.682 208.125 29.228 208.125 30.04C208.125 30.6093 207.934 31.0807 207.551 31.454C207.178 31.818 206.636 32 205.927 32H202.525V25H205.647C206.328 25 206.856 25.1773 207.229 25.532C207.602 25.8773 207.789 26.3253 207.789 26.876C207.789 27.576 207.518 28.0847 206.977 28.402ZM205.647 25.896H203.449V28.024H205.647C206.459 28.024 206.865 27.66 206.865 26.932C206.865 26.6053 206.758 26.3533 206.543 26.176C206.338 25.9893 206.039 25.896 205.647 25.896ZM205.927 31.104C206.338 31.104 206.65 31.006 206.865 30.81C207.089 30.614 207.201 30.3387 207.201 29.984C207.201 29.6573 207.089 29.4007 206.865 29.214C206.65 29.018 206.338 28.92 205.927 28.92H203.449V31.104H205.927Z" fill="#3E3F43"/>
<path fill-rule="evenodd" clip-rule="evenodd" d="M15 5C7.8203 5 2 10.8203 2 18C2 21.8545 3.6772 25.318 6.34401 27.6995C6.65272 27.9752 7.12281 27.7463 7.12281 27.3324V21.2488C7.12281 21.1155 7.06957 20.9877 6.97493 20.8938L4.71696 18.654C4.32487 18.265 4.32232 17.6318 4.71126 17.2398C5.10021 16.8477 5.73337 16.8451 6.12547 17.2341L8.97493 20.0607C9.06957 20.1546 9.12281 20.2823 9.12281 20.4156V29.2921C9.12281 29.4804 9.22821 29.6534 9.39805 29.7347C9.59354 29.8282 9.79171 29.9169 9.99243 30.0008C10.3111 30.1339 10.6528 29.8931 10.6528 29.5478V19.9757C10.6528 19.8424 10.5995 19.7146 10.5049 19.6208L5.57844 14.7338C5.18635 14.3449 5.1838 13.7117 5.57274 13.3196C5.96169 12.9275 6.59485 12.925 6.98695 13.3139L12.5049 18.7876C12.5995 18.8815 12.6528 19.0093 12.6528 19.1426V30.3717C12.6528 30.6133 12.8253 30.8214 13.0642 30.857C13.1965 30.8767 13.3295 30.8945 13.4631 30.9102C13.7522 30.9442 14 30.7138 14 30.4227V18.2581C14 18.1248 13.9468 17.997 13.8521 17.9031L7.68107 11.7816C7.28898 11.3926 7.28643 10.7594 7.67538 10.3674C8.06433 9.97526 8.69749 9.97271 9.08958 10.3617L13.1479 14.3874C13.4634 14.7004 14 14.4769 14 14.0324V13.7349C14 13.6016 13.9468 13.4738 13.8521 13.3799L10.4006 9.9561C10.0085 9.56715 10.006 8.93399 10.3949 8.5419C10.7839 8.14981 11.417 8.14726 11.8091 8.5362L13.1479 9.86422C13.4634 10.1773 14 9.95373 14 9.50925V8.05263C14 7.50035 14.4477 7.05263 15 7.05263C15.5523 7.05263 16 7.50035 16 8.05263V9.50924C16 9.95372 16.5366 10.1772 16.8521 9.86421L18.1909 8.53619C18.583 8.14724 19.2161 8.14978 19.6051 8.54188C19.994 8.93397 19.9915 9.56713 19.5994 9.95608L16.1479 13.3799C16.0532 13.4738 16 13.6016 16 13.7349V14.0324C16 14.4769 16.5366 14.7004 16.8521 14.3874L20.9104 10.3616C21.3025 9.97269 21.9357 9.97524 22.3246 10.3673C22.7136 10.7594 22.711 11.3926 22.3189 11.7815L16.1479 17.9031C16.0532 17.997 16 18.1248 16 18.2581V30.4227C16 30.7138 16.2478 30.9442 16.5369 30.9102C16.6705 30.8945 16.8035 30.8767 16.9358 30.857C17.1747 30.8213 17.3472 30.6133 17.3472 30.3717V19.1426C17.3472 19.0093 17.4005 18.8815 17.4951 18.7876L23.0131 13.3139C23.4051 12.925 24.0383 12.9275 24.4273 13.3196C24.8162 13.7117 24.8137 14.3449 24.4216 14.7338L19.4951 19.6207C19.4005 19.7146 19.3472 19.8424 19.3472 19.9757V29.5477C19.3472 29.893 19.6889 30.1339 20.0076 30.0008C20.2083 29.9169 20.4065 29.8282 20.6019 29.7347C20.7718 29.6534 20.8772 29.4804 20.8772 29.2921V20.4156C20.8772 20.2823 20.9304 20.1545 21.0251 20.0607L23.8745 17.234C24.2666 16.8451 24.8998 16.8476 25.2887 17.2397C25.6777 17.6318 25.6751 18.265 25.283 18.6539L23.0251 20.8938C22.9304 20.9877 22.8772 21.1155 22.8772 21.2488V27.3324C22.8772 27.7463 23.3473 27.9752 23.656 27.6995C26.3228 25.318 28 21.8544 28 18C28 10.8203 22.1797 5 15 5ZM0 18C0 9.71573 6.71573 3 15 3C23.2843 3 30 9.71571 30 18C30 23.6075 26.9225 28.495 22.3691 31.0679C21.1971 31.7301 19.9268 32.2394 18.5855 32.5685C17.4356 32.8506 16.2346 33 15 33C13.7654 33 12.5644 32.8506 11.4145 32.5685C10.0732 32.2395 8.80286 31.7301 7.63086 31.0679C3.07749 28.495 0 23.6076 0 18Z" fill="#C4A886"/>
</svg>
