<svg width="22" height="22" viewBox="0 0 22 22" fill="none" xmlns="http://www.w3.org/2000/svg">
<path d="M10.9589 0.866048C10.94 0.869486 10.9211 0.874642 10.9039 0.879798C10.8455 0.89183 10.7888 0.914173 10.7389 0.948548L1.16893 4.4273C0.995338 4.49089 0.880181 4.65589 0.880181 4.8398V16.6098C0.847525 16.7284 0.866431 16.8556 0.931744 16.9604C0.997056 17.0653 1.1019 17.1375 1.22393 17.1598H1.23768C1.25143 17.165 1.26518 17.1701 1.27893 17.1735L10.8627 21.0785C10.9727 21.125 11.0964 21.125 11.2064 21.0785L20.8452 17.1323C20.8589 17.1289 20.8727 17.1237 20.8864 17.1185C20.9277 17.0962 20.9638 17.0687 20.9964 17.036C21.0016 17.036 21.005 17.036 21.0102 17.036C21.1305 16.9192 21.1735 16.7421 21.1202 16.5823V4.8398C21.1202 4.65589 21.005 4.49089 20.8314 4.4273L11.2477 0.948548C11.2391 0.943392 11.2288 0.938236 11.2202 0.934798L11.2064 0.921048C11.1892 0.915892 11.1703 0.910736 11.1514 0.907298C11.1428 0.902142 11.1325 0.896986 11.1239 0.893548C11.1188 0.893548 11.1153 0.893548 11.1102 0.893548C11.1016 0.888392 11.0913 0.883236 11.0827 0.879798C11.0431 0.869486 11.0002 0.86433 10.9589 0.866048ZM10.5602 1.9523V12.8973L1.76018 16.0873V5.1423L10.5602 1.9523ZM11.4402 1.9523L20.2402 5.1423V16.0873L18.0402 15.2898V7.6173C18.0402 7.43339 17.925 7.26839 17.7514 7.2048L13.7914 5.7473C13.721 5.7198 13.6453 5.70949 13.5714 5.7198C13.3549 5.75417 13.1967 5.94152 13.2002 6.1598V13.5298L11.4402 12.8973V1.9523ZM8.30518 5.7198C8.26737 5.72495 8.23128 5.73355 8.19518 5.7473L4.23518 7.32855C4.06674 7.39558 3.95846 7.56058 3.96018 7.74105V12.141C3.95846 12.2889 4.03065 12.4264 4.15268 12.5089C4.27471 12.5914 4.4294 12.6085 4.56518 12.5535L8.52518 10.9998C8.69362 10.9328 8.8019 10.7678 8.80018 10.5873V6.1598C8.8019 6.03261 8.7469 5.9123 8.65237 5.82808C8.55784 5.74386 8.43065 5.70433 8.30518 5.7198ZM14.0802 6.7923L17.1602 7.9198V14.9735L14.0802 13.8598V6.7923ZM7.92018 6.80605V10.2848L4.84018 11.5085V8.0298L7.92018 6.80605ZM11.0002 13.6673L19.4564 16.7335L11.0277 20.1848L2.55768 16.7335L11.0002 13.6673Z" fill="#C4A886"/>
</svg>
