<svg width="23" height="18" viewBox="0 0 23 18" fill="none" xmlns="http://www.w3.org/2000/svg">
<path d="M11.0193 0C6.54886 0 3.87449 0.395312 2.24683 1.045C1.43215 1.36984 0.871835 1.76516 0.514335 2.2275C0.156836 2.68984 0.0193359 3.21578 0.0193359 3.69875V6.9025C-0.00644531 6.98844 -0.00644531 7.07781 0.0193359 7.16375V17.6H3.53933V16.28H18.4993V17.6H22.0193V7.1225C22.0313 7.06406 22.0313 7.00219 22.0193 6.94375V3.69875C22.0193 3.21578 21.8818 2.68984 21.5243 2.2275C21.1668 1.76516 20.6065 1.36984 19.7918 1.045C18.1642 0.395312 15.4898 0 11.0193 0ZM11.0193 0.88C15.4365 0.88 18.0456 1.29937 19.4756 1.87C20.1906 2.15531 20.6031 2.46297 20.8368 2.76375C21.0706 3.06453 21.1393 3.36703 21.1393 3.69875V6.6H20.2593V5.45875C20.2593 4.5925 19.9946 3.79672 19.2693 3.31375C18.544 2.83078 17.4801 2.64 15.8593 2.64C14.2385 2.64 13.1746 2.83078 12.4493 3.31375C11.724 3.79672 11.4593 4.5925 11.4593 5.45875V6.6H10.5793V5.45875C10.5793 4.5925 10.3146 3.79672 9.58932 3.31375C8.86401 2.83078 7.80011 2.64 6.17933 2.64C4.55855 2.64 3.49464 2.83078 2.76933 3.31375C2.04402 3.79672 1.77933 4.5925 1.77933 5.45875V6.6H0.899335V3.69875C0.899335 3.36703 0.968085 3.06453 1.20183 2.76375C1.43558 2.46297 1.84808 2.15531 2.56308 1.87C3.99308 1.29937 6.60214 0.88 11.0193 0.88ZM6.17933 3.52C7.7262 3.52 8.64573 3.73484 9.10807 4.0425C9.57042 4.35016 9.69932 4.74031 9.69932 5.45875V6.6H2.65933V5.45875C2.65933 4.74031 2.78824 4.35016 3.25058 4.0425C3.71292 3.73484 4.63245 3.52 6.17933 3.52ZM15.8593 3.52C17.4062 3.52 18.3257 3.73484 18.7881 4.0425C19.2504 4.35016 19.3793 4.74031 19.3793 5.45875V6.6H12.3393V5.45875C12.3393 4.74031 12.4682 4.35016 12.9306 4.0425C13.3929 3.73484 14.3124 3.52 15.8593 3.52ZM0.899335 7.48H21.1393V16.72H19.3793V15.4H2.65933V16.72H0.899335V7.48Z" fill="#C4A886"/>
</svg>
