<svg width="23" height="23" viewBox="0 0 23 23" fill="none" xmlns="http://www.w3.org/2000/svg">
<path d="M12.2787 0.00133357C12.2598 0.00477106 12.2409 0.00992728 12.2238 0.0150835C12.0588 0.0443023 11.9264 0.164615 11.88 0.324458C11.8336 0.48602 11.8817 0.657895 12.0037 0.771333L13.4475 2.21508H1.9525L3.39625 0.771333C3.53891 0.638989 3.57672 0.429302 3.49078 0.255708C3.40656 0.080396 3.21578 -0.0158539 3.025 0.0150835C2.92703 0.025396 2.83422 0.0700835 2.76375 0.138833L0.56375 2.33883L0.26125 2.65508L0.56375 2.97133L2.76375 5.17133C2.93906 5.34664 3.22094 5.34664 3.39625 5.17133C3.57156 4.99601 3.57156 4.71414 3.39625 4.53883L1.9525 3.09508H13.4475L12.0037 4.53883C11.8284 4.71414 11.8284 4.99601 12.0037 5.17133C12.1791 5.34664 12.4609 5.34664 12.6362 5.17133L14.8363 2.97133L15.1388 2.65508L14.8363 2.33883L12.6362 0.138833C12.5452 0.0408648 12.4128 -0.00897892 12.2787 0.00133357ZM0 6.61508V22.0151H15.4V6.61508H0ZM19.36 6.87632L19.0438 7.17882L16.8438 9.37882C16.6684 9.55413 16.6684 9.83601 16.8438 10.0113C17.0191 10.1866 17.3009 10.1866 17.4762 10.0113L18.92 8.56757V20.0626L17.4762 18.6188C17.3852 18.5208 17.2528 18.471 17.1187 18.4813C17.0998 18.4847 17.0809 18.4899 17.0637 18.4951C16.8987 18.5243 16.7664 18.6446 16.72 18.8044C16.6736 18.966 16.7217 19.1379 16.8438 19.2513L19.0438 21.4513L19.36 21.7538L19.6763 21.4513L21.8762 19.2513C22.0516 19.076 22.0516 18.7941 21.8762 18.6188C21.7009 18.4435 21.4191 18.4435 21.2437 18.6188L19.8 20.0626V8.56757L21.2437 10.0113C21.4191 10.1866 21.7009 10.1866 21.8762 10.0113C22.0516 9.83601 22.0516 9.55413 21.8762 9.37882L19.6763 7.17882L19.36 6.87632ZM0.88 7.49507H14.52V21.1351H0.88V7.49507Z" fill="#C4A886"/>
<path d="M9.0689 12.743V17H8.34714V13.8916L6.70452 16.5181H6.35608L4.73005 13.8835V17H4V12.743H4.82131L6.54689 15.6185L8.32225 12.743H9.0689Z" fill="#C4A886"/>
<path d="M13 13.9076V14.3735H10.2291V14.012L11.7639 12.7108C11.9575 12.5448 12.0874 12.411 12.1538 12.3092C12.2257 12.2021 12.2617 12.095 12.2617 11.988C12.2617 11.838 12.1925 11.7175 12.0542 11.6265C11.916 11.5301 11.7086 11.4819 11.432 11.4819C11.2274 11.4819 11.0449 11.5141 10.8845 11.5783C10.7241 11.6372 10.5914 11.7256 10.4863 11.8434L10.0798 11.5382C10.3729 11.1794 10.8375 11 11.4735 11C11.9104 11 12.2478 11.0884 12.4856 11.2651C12.7235 11.4418 12.8424 11.6693 12.8424 11.9478C12.8424 12.1191 12.7981 12.2798 12.7096 12.4297C12.6211 12.5797 12.4525 12.7617 12.2036 12.9759L11.1085 13.9076H13Z" fill="#C4A886"/>
</svg>
