<svg width="44" height="34" viewBox="0 0 44 34" fill="none" xmlns="http://www.w3.org/2000/svg">
<path d="M8.00413 33.7751V31.5283C8.00413 30.6678 7.47372 30.1061 6.56963 30.1061C6.11155 30.1061 5.62936 30.2615 5.27978 30.7395C5.01458 30.3332 4.64088 30.1061 4.07431 30.1061C3.70062 30.1061 3.31487 30.2137 3.0135 30.632V30.1778H2.2179V33.7751H3.0135V31.7912C3.0135 31.1578 3.35103 30.859 3.88144 30.859C4.41184 30.859 4.67704 31.1937 4.67704 31.7912V33.7751H5.47265V31.7912C5.47265 31.1578 5.84635 30.859 6.34059 30.859C6.87099 30.859 7.13619 31.1937 7.13619 31.7912V33.7751H8.00413ZM19.7574 30.1778H18.4676V29.0903H17.672V30.1778H16.9487V30.8949H17.672V32.5442C17.672 33.3688 18.0095 33.8588 18.9136 33.8588C19.2511 33.8588 19.6369 33.7512 19.89 33.5959L19.661 32.9266C19.4319 33.082 19.1667 33.1178 18.9859 33.1178C18.6122 33.1178 18.4555 32.8907 18.4555 32.5203V30.9068H19.7454V30.1778H19.7574ZM26.4719 30.1061C26.0138 30.1061 25.7124 30.3332 25.5316 30.632V30.1778H24.736V33.7751H25.5316V31.7554C25.5316 31.1578 25.7968 30.8232 26.291 30.8232C26.4478 30.8232 26.6286 30.859 26.7853 30.8949L27.0143 30.142C26.8576 30.1061 26.6286 30.1061 26.4719 30.1061ZM16.3098 30.4766C15.9361 30.2137 15.4057 30.1061 14.8391 30.1061C13.935 30.1061 13.3323 30.5603 13.3323 31.2654C13.3323 31.8629 13.7904 32.1976 14.5739 32.3171L14.9476 32.3529C15.3575 32.4246 15.5865 32.5442 15.5865 32.7234C15.5865 32.9864 15.2851 33.1776 14.7547 33.1776C14.2243 33.1776 13.8145 32.9864 13.5493 32.8071L13.1756 33.4046C13.5854 33.7034 14.152 33.8588 14.7186 33.8588C15.7794 33.8588 16.3821 33.3688 16.3821 32.6995C16.3821 32.0661 15.8879 31.7315 15.1405 31.612L14.7668 31.5761C14.4293 31.5403 14.1641 31.4686 14.1641 31.2415C14.1641 30.9786 14.4293 30.8351 14.8391 30.8351C15.2972 30.8351 15.7432 31.0264 15.9723 31.1339L16.3098 30.4766ZM37.3934 30.1061C36.9353 30.1061 36.6339 30.3332 36.4531 30.632V30.1778H35.6575V33.7751H36.4531V31.7554C36.4531 31.1578 36.7183 30.8232 37.2126 30.8232C37.3693 30.8232 37.5501 30.859 37.7068 30.8949L37.9358 30.142C37.7671 30.1061 37.538 30.1061 37.3934 30.1061ZM27.2675 31.9825C27.2675 33.07 28.0269 33.8588 29.1962 33.8588C29.7266 33.8588 30.1003 33.7512 30.4861 33.4525L30.1124 32.819C29.811 33.0461 29.5096 33.1537 29.1721 33.1537C28.5332 33.1537 28.0751 32.6995 28.0751 31.9944C28.0751 31.3251 28.5332 30.871 29.1721 30.8351C29.5096 30.8351 29.811 30.9427 30.1124 31.1698L30.4861 30.5364C30.1124 30.2376 29.7266 30.13 29.1962 30.13C28.0269 30.1061 27.2675 30.8949 27.2675 31.9825ZM34.5967 31.9825V30.1898H33.8011V30.6439C33.5359 30.3093 33.1622 30.1181 32.668 30.1181C31.6433 30.1181 30.8598 30.9068 30.8598 31.9944C30.8598 33.082 31.6554 33.8707 32.668 33.8707C33.1984 33.8707 33.5721 33.6795 33.8011 33.3449V33.799H34.5967V31.9825ZM31.6915 31.9825C31.6915 31.349 32.1014 30.8232 32.7885 30.8232C33.4274 30.8232 33.8855 31.3132 33.8855 31.9825C33.8855 32.6159 33.4274 33.1417 32.7885 33.1417C32.1014 33.1059 31.6915 32.6159 31.6915 31.9825ZM22.2045 30.1061C21.1437 30.1061 20.3963 30.859 20.3963 31.9825C20.3963 33.1059 21.1558 33.8588 22.2527 33.8588C22.7831 33.8588 23.3135 33.7034 23.7234 33.3688L23.3497 32.8071C23.0483 33.0342 22.6746 33.1776 22.2889 33.1776C21.7947 33.1776 21.3125 32.9505 21.1919 32.3171H23.8681V32.0183C23.9042 30.859 23.2292 30.1061 22.2045 30.1061ZM22.2045 30.7754C22.6988 30.7754 23.0363 31.0742 23.1086 31.6359H21.216C21.3004 31.1578 21.6379 30.7754 22.2045 30.7754ZM41.8898 31.9825V28.7676H41.0942V30.6439C40.829 30.3093 40.4553 30.1181 39.961 30.1181C38.9364 30.1181 38.1528 30.9068 38.1528 31.9944C38.1528 33.082 38.9484 33.8707 39.961 33.8707C40.4914 33.8707 40.8651 33.6795 41.0942 33.3449V33.799H41.8898V31.9825ZM38.9725 31.9825C38.9725 31.349 39.3824 30.8232 40.0695 30.8232C40.7084 30.8232 41.1665 31.3132 41.1665 31.9825C41.1665 32.6159 40.7084 33.1417 40.0695 33.1417C39.3944 33.1059 38.9725 32.6159 38.9725 31.9825ZM12.4644 31.9825V30.1898H11.6687V30.6439C11.4035 30.3093 11.0298 30.1181 10.5356 30.1181C9.51096 30.1181 8.72741 30.9068 8.72741 31.9944C8.72741 33.082 9.52302 33.8707 10.5356 33.8707C11.066 33.8707 11.4397 33.6795 11.6687 33.3449V33.799H12.4644V31.9825ZM9.52302 31.9825C9.52302 31.349 9.93287 30.8232 10.62 30.8232C11.2589 30.8232 11.717 31.3132 11.717 31.9825C11.717 32.6159 11.2589 33.1417 10.62 33.1417C9.93287 33.1059 9.52302 32.6159 9.52302 31.9825Z" fill="#EEEEEE"/>
<path opacity="0.3" d="M16.8042 13.4809C16.8042 9.17851 18.8414 5.35413 21.9756 2.88024C19.6732 1.08756 16.768 0 13.5977 0C6.07555 0 0 6.0234 0 13.4809C0 20.9265 6.07555 26.9619 13.5977 26.9619C16.768 26.9619 19.6732 25.8743 21.9877 24.0816C18.8414 21.6436 16.8042 17.7834 16.8042 13.4809Z" fill="#EEEEEE"/>
<path d="M44.0001 13.4809C44.0001 20.9265 37.9246 26.9619 30.4025 26.9619C27.2321 26.9619 24.3269 25.8743 22.0125 24.0816C25.1828 21.6077 27.1839 17.7953 27.1839 13.4809C27.1839 9.17851 25.1467 5.35413 22.0125 2.88024C24.3269 1.08756 27.2321 0 30.4025 0C37.9246 0 44.0001 6.0712 44.0001 13.4809Z" fill="#88A6D3"/>
<path d="M44.0002 13.4809C44.0002 20.9265 37.9246 26.9619 30.4025 26.9619C27.2321 26.9619 24.3269 25.8743 22.0124 24.0816C25.1828 21.6077 27.1839 17.7953 27.1839 13.4809C27.1839 9.17851 25.1467 5.35413 22.0124 2.88024C24.3269 1.08756 27.2321 0 30.4025 0C37.9246 0 44.0002 6.0712 44.0002 13.4809Z" fill="#EEEEEE"/>
<path d="M30.4025 26.9619C27.2321 26.9619 24.3269 25.8743 22.0124 24.0816C25.1828 21.6077 27.1839 17.7953 27.1839 13.4809C27.1839 9.17851 25.1467 5.35413 22.0124 2.88024C24.3269 1.08756 27.2321 0 30.4025 0C22.8804 0 16.8048 6.0712 16.8048 13.4809C16.8048 20.9265 22.8804 26.9619 30.4025 26.9619Z" fill="#EEEEEE"/>
<path opacity="0.3" d="M22.0125 24.0823C25.1828 21.6084 27.1839 17.796 27.1839 13.4816C27.1839 9.17916 25.1467 5.35478 22.0125 2.88088C18.8782 5.35478 16.8409 9.17911 16.8409 13.4815C16.8409 17.7959 18.8421 21.6084 22.0125 24.0823Z" fill="#EEEEEE"/>
</svg>
